<?xml version="1.0" encoding="UTF-8"?>
<svg id="Camada_1" data-name="Camada 1" xmlns="http://www.w3.org/2000/svg" xmlns:xlink="http://www.w3.org/1999/xlink" viewBox="0 0 1044.29 1044.29">
  <defs>
    <style>
      .cls-1 {
        fill: #3b3f42;
        fill-rule: evenodd;
      }

      .cls-2 {
        fill: none;
      }

      .cls-3 {
        fill: url(#Gradiente_sem_nome_3);
      }

      .cls-4 {
        clip-path: url(#clippath);
      }
    </style>
    <clipPath id="clippath">
      <path class="cls-2" d="M572.52,228.17c-4.31,0-8.31.92-12,2.15,7.85,5.23,12.16,12.15,14.31,19.99.15,1.08.46,1.85.61,2.93.16.92.31,1.84.31,2.77.61,13.54-3.54,15.23-6.47,23.22-4.46,10.31-3.23,21.38,2.16,30.31.46,1.07,1.08,2.31,1.84,3.38-5.85-38.91,26.62-44.76,32.62-56.91.46-10.61-8.31-17.69-15.23-22.61-6.62-4-12.62-5.23-18.15-5.23ZM621.44,236.94c-.61,3.54-.15,2.62-.3,4.46-.16,1.23-.16,2.77-.31,4-.3,1.23-.61,2.46-1.08,3.69-.3,1.23-.77,2.46-1.23,3.69-.61,1.23-1.08,2.31-1.69,3.54-.46.62-.77,1.23-1.23,1.85-.3.46-.61.92-.92,1.38-.77,1.08-1.54,2.15-2.31,3.08-.92.92-1.69,2-2.77,2.77v.15c-.92.77-1.85,1.69-2.93,2.46-3.23,2.46-6.92,4.31-10.31,6.61-1.08.77-2.15,1.38-3.08,2.31-1.08.77-2,1.54-2.93,2.46-1.08.92-1.84,1.84-2.77,2.92-.77.92-1.69,2-2.31,3.08-.77,1.07-1.54,2.15-2.15,3.23-.61,1.23-1.08,2.31-1.69,3.54-.46,1.23-.92,2.31-1.23,3.54-.46,1.39-.77,2.62-1.08,3.85-.15.61-.15,1.39-.3,2-.16.61-.16,1.23-.31,1.84,0,1.23-.15,2.62-.15,3.85,0,.92,0,1.85.15,2.77,0,1.23.15,2.46.46,3.85.15,1.23.46,2.46.77,3.69.46,1.23.77,2.46,1.23,3.69.3.77.77,1.54,1.08,2.15l-35.39-13.69c-6-1.69-11.85-3.23-17.85-4.62-3.23-.77-6.46-1.53-9.69-2.31-9.24-1.84-18.62-3.23-28-4.15-.31,0-.46-.16-.77-.16-9.23-.92-18.31-1.38-27.54-1.38-6.77,0-13.54.3-20.16.77-9.39.61-18.78,1.85-28.16,3.38-2.31.31-4.61.77-6.92,1.23-4.77.92-9.38,2-13.85,3.07-2.31.61-4.62,1.23-6.92,1.85-2.31.92-4.46,2-6.62,2.92-1.69.77-3.38,1.54-5.07,2.31-.31.15-.61.15-.77.31-1.54.77-2.92,1.38-4.31,2.15-.46.15-.77.3-1.08.46-1.69.77-3.38,1.7-4.77,2.46-1.08.46-2.15,1.08-3.08,1.54-.46.3-1.08.61-1.38.77-1.39.77-2.77,1.54-4,2.31-1.39.77-2.62,1.54-3.69,2.31-1.08.77-2.15,1.38-3.08,2.15-.15.16-.3.16-.46.31-.92.61-2,1.39-2.92,2.15,0,0-.15.15-.31.3-.77.62-1.54,1.23-2.31,1.85-.31.15-.61.46-.92.61-.77.61-1.54,1.38-2.31,2-.15.3-.46.46-.61.61-.92.92-1.85,1.69-2.77,2.62-.15,0-.15.15-.3.3-.92.77-1.85,1.69-2.77,2.62-.16.15-.16.3-.31.3-.77.77-1.54,1.54-2.31,2.46-.31.3-.77.61-1.08.92-.77.92-1.7,1.84-2.62,2.77-.16.3-.46.46-.62.77-1.23,1.23-2.31,2.46-3.54,3.69-.16.15-.31.3-.46.46-2.46,2.61-5.08,5.23-7.85,7.53-2.77,2.46-5.69,4.77-8.62,6.77-3.08,2.15-6,4-9.24,5.84-3.08,1.69-6.31,3.23-9.69,4.62-3.23,1.38-6.62,2.62-10,3.69-6.46,1.39-13.08,4-18.78,4.47-1.23,0-2.62.3-3.85.46-1.39.31-2.62.62-3.85.92-1.23.46-2.46.92-3.69,1.39-1.23.46-2.46,1.08-3.69,1.69-1.08.77-2.31,1.38-3.39,2.15-1.08.77-2.15,1.69-3.07,2.61-1.08.77-2.16,1.85-3.08,2.77-.92,1.08-1.85,2-2.62,3.08-.77,1.23-1.69,2.31-2.31,3.54-.77,1.08-1.53,2.31-2.15,3.54-.61,1.39-1.23,2.62-1.69,4-.46,1.23-.92,2.62-1.38,4-.31,1.23-.62,2.46-.77,3.69,0,.16-.15.31-.15.46-.31,1.39-.31,3.23-.46,4.16-.15,1.08-.31,2-.31,3.07,0,.62,0,1.39.16,2,.15,1.08.3,2,.61,2.92.3.92.61,1.85,1.08,2.77v.16c.46.92,1.08,1.84,1.69,2.77.61.92,1.23,1.84,2,2.77.77.77,1.69,1.69,2.62,2.46.92.92,1.84,1.69,2.92,2.46,3.69,3.23,4.62,4.31,9.39,6.77.77.46,1.54.77,2.46,1.23.15,0,.3.16.46.16,0,.3,0,.46.15.77.15,1.23.46,2.46.77,3.69.31,1.38.77,2.62,1.23,3.69.46.92.77,1.84,1.23,2.77.15.3.31.61.46.77.61,1.23,1.23,2.31,1.85,3.38.77,1.08,1.53,2.15,2.31,3.23.77.92,1.69,2,2.62,2.92.92.92,1.84,1.7,2.92,2.62,0,0,.16.16.31.16.92.77,1.84,1.53,2.77,2.15,1.08.77,2.15,1.39,3.39,2,1.08.61,2.31,1.23,3.54,1.69.92.46,2,.77,3.08,1.08.15.16.31.16.61.31.62.15,1.39.3,2,.46-.46,8.31-.61,16.15.61,18.92,1.39,3.08,8.16-6.3,14.93-17.07-.92,10.61-1.54,23.07,0,26.76,1.69,3.85,10.92-8.15,18.92-21.38,109.1-25.23,208.66,50.14,219.12,156.58-2-16.61-22.46-25.84-31.85-23.53-4.62,11.38-12.46,26-25.08,35.07,1.08-10.15.61-20.61-1.54-30.76-3.39,14.15-10,27.38-19.08,38.76-14.62,1.08-29.24-6-36.93-16.61-.62-.46-.77-1.39-1.23-2-.46-1.08-.92-2.15-1.23-3.23-.46-1.08-.77-2.15-.92-3.23s-.15-2.15-.15-3.38v-2.31c.15-1.08.46-2.15.77-3.23.31-1.08.62-2.15,1.08-3.23.62-1.08,1.08-2.15,1.85-3.23,2.62-7.38,2.62-13.38-2.15-16.92-.92-.61-1.85-1.08-2.93-1.53-.61-.16-1.38-.46-2-.62-.46-.15-.77-.3-1.23-.46-1.08-.31-2.15-.62-3.23-.77-1.08-.3-2.15-.46-3.23-.46-1.08-.15-2.31-.3-3.39-.3-.77,0-1.53.15-2.31.15-1.23,0-2.31.15-3.38.46-1.08.15-2.15.3-3.23.61-1.08.31-2.16.61-3.24,1.08-1.08.46-2,.92-3.07,1.39-.92.46-1.85,1.08-2.93,1.53-35.85,23.38-14.46,78.14,10,93.98-9.23,1.69-18.62,3.69-21.23,5.69-.16.15-.31.31-.31.31,6.62,4,13.54,7.38,20.78,10.3,9.84,3.23,20.31,6.16,24.93,7.39v.15c12.77,2.62,25.69,3.54,38.77,2.77,68.17-4.76,124.02-56.6,134.18-124.9.31,1.39.62,2.62.92,4,.46,2.77,1.08,5.69,1.39,8.61v.16c.3,1.38.46,2.77.61,4v.61c.15,1.39.31,2.77.31,4,.15,1.69.3,3.38.3,5.07v2.46c0,.77.15,1.69.15,2.46,0,.92-.15,1.84-.15,2.77v2.15c0,1.08-.15,2-.15,3.07,0,.62,0,1.23-.16,2,0,1.08-.15,2.15-.15,3.38-.15.46-.15.92-.15,1.39-.16,1.23-.31,2.31-.46,3.54,0,.46,0,.92-.16,1.39-.15,1.54-.46,2.92-.61,4.46v.31c-.3,1.38-.61,2.92-.92,4.3v.46c-.31,1.39-.62,2.77-.92,4.16,0,.15-.16.46-.16.61-.3,1.39-.61,2.77-1.08,4.16v.46c-.46,1.54-.92,2.93-1.23,4.31-.15.16-.15.31-.15.31-.46,1.54-.92,3.07-1.39,4.61-.61,1.54-1.08,2.93-1.69,4.46-.61,1.54-1.08,3.08-1.69,4.46-.61,1.54-1.23,2.93-1.85,4.47h-.15c-.61,1.38-1.23,2.92-2,4.3-.15.46-.3.77-.46,1.08-.15.16-.15.31-.3.46-10,20.15-24.77,37.84-43.24,51.68-1.23.77-2.46,1.69-3.69,2.61-.31.31-.77.46-1.08.77-1.08.77-2.15,1.54-3.39,2.31l.46.92h.16c2.15-.31,4.31-.62,6.46-.92h.15c4-.61,8-1.39,12-2.15,1.08-.15,2.31-.46,3.38-.77.77-.16,1.39-.31,2.15-.46,1.08-.16,2.15-.46,3.23-.61.92-.31,1.85-.46,2.77-.77,15.39-3.69,30.31-8.77,44.62-14.77-24.46,33.38-57.24,60.29-95.56,77.98,17.7-1.23,35.39-4.15,52.47-9.07,62.01-18.3,114.17-59.98,145.41-116.13-6.31,35.53-20.47,69.37-41.39,98.9,14.92-9.84,28.62-21.23,41.08-34.15,34.47-35.99,57.09-81.67,64.78-130.74,5.23,24.3,6.77,49.37,4.47,74.14,111.09-154.89,9.23-315.47-33.39-357.77-.15-.3-.3-.46-.3-.77q-.16.15-.16.3,0-.15-.15-.3c0,1.84-.15,3.69-.3,5.54-.46,3.54-.92,6.92-1.54,10.31-.77,3.38-1.7,6.77-2.62,10.15-1.08,3.23-2.31,6.61-3.69,9.84-1.39,3.08-2.93,6.31-4.62,9.38-1.69,2.93-3.54,6-5.54,8.77-2,2.93-4.15,5.69-6.31,8.31-2.31,2.77-4.77,5.23-7.23,7.69-1.54,1.38-2.93,2.61-4.47,3.85-1.23,1.08-2.31,2-3.54,3.07-2.77,2.15-5.54,4.16-8.62,6-2.92,1.85-6,3.69-9.08,5.23-3.23,1.54-6.46,2.92-9.69,4.31-3.23,1.23-6.62,2.31-10,3.22-3.39.92-6.92,1.7-10.31,2.31-3.54.61-7.08.92-10.46,1.23-2.46.15-4.92.3-7.39.3-3.54,0-7.08-.3-10.46-.61-3.54-.3-7.08-.77-10.46-1.54-3.54-.61-6.92-1.53-10.31-2.61h-.15c3.38-.31,6.77-.61,10.15-1.23,3.54-.61,6.92-1.38,10.31-2.31,3.38-.92,6.77-2,10-3.23,3.38-1.23,6.61-2.77,9.69-4.3,3.23-1.54,6.16-3.23,9.24-5.08,2.92-2,5.85-4,8.62-6.15,2.77-2.15,5.38-4.46,7.85-6.92,2.62-2.31,4.92-4.92,7.23-7.53,2.31-2.77,4.47-5.54,6.47-8.31.3-.46.61-1.08.92-1.54,1.54-2.46,3.08-4.92,4.47-7.39,1.69-3.07,3.23-6.15,4.62-9.38,1.38-3.23,2.62-6.46,3.69-9.84,1.08-3.23,1.84-6.61,2.62-10,.61-3.54,1.23-6.92,1.53-10.31.31-3.54.62-7.08.62-10.46,0-2.46-.16-4.92-.31-7.38-.3-3.54-.77-6.92-1.23-10.31-.61-3.54-1.39-6.92-2.31-10.31-1.08-3.23-2.15-6.61-3.38-9.84-1.23-3.23-2.77-6.46-4.31-9.53-1.69-3.08-3.39-6.16-5.23-9.08-2-2.92-4-5.69-6.16-8.46-2.31-2.62-4.61-5.23-7.08-7.85-1.23-1.23-2.62-2.61-4-3.85-6.92-5.38-14.15-10.46-21.39-15.07-1.08-.61-2-1.08-3.08-1.54-5.08-3.23-9.85-4.92-14.62-6.46Z"/>
    </clipPath>
    <linearGradient id="Gradiente_sem_nome_3" data-name="Gradiente sem nome 3" x1="-18.47" y1="1063.7" x2="-17.35" y2="1063.7" gradientTransform="translate(10387.72 583461.59) scale(550.4 -548.03)" gradientUnits="userSpaceOnUse">
      <stop offset="0" stop-color="#ea2845"/>
      <stop offset=".02" stop-color="#ea2845"/>
      <stop offset=".03" stop-color="#ea2846"/>
      <stop offset=".05" stop-color="#ea2846"/>
      <stop offset=".06" stop-color="#ea2847"/>
      <stop offset=".08" stop-color="#ea2848"/>
      <stop offset=".09" stop-color="#ea2848"/>
      <stop offset=".11" stop-color="#ea2849"/>
      <stop offset=".12" stop-color="#ea2849"/>
      <stop offset=".14" stop-color="#ea284a"/>
      <stop offset=".16" stop-color="#ea284a"/>
      <stop offset=".17" stop-color="#ea284b"/>
      <stop offset=".19" stop-color="#ea284b"/>
      <stop offset=".2" stop-color="#ea284c"/>
      <stop offset=".22" stop-color="#ea284d"/>
      <stop offset=".23" stop-color="#ea284d"/>
      <stop offset=".25" stop-color="#ea284e"/>
      <stop offset=".27" stop-color="#ea284e"/>
      <stop offset=".28" stop-color="#ea284f"/>
      <stop offset=".3" stop-color="#ea284f"/>
      <stop offset=".31" stop-color="#ea2850"/>
      <stop offset=".33" stop-color="#ea2851"/>
      <stop offset=".34" stop-color="#ea2851"/>
      <stop offset=".36" stop-color="#ea2852"/>
      <stop offset=".38" stop-color="#ea2852"/>
      <stop offset=".39" stop-color="#ea2853"/>
      <stop offset=".41" stop-color="#ea2853"/>
      <stop offset=".42" stop-color="#ea2854"/>
      <stop offset=".44" stop-color="#ea2855"/>
      <stop offset=".45" stop-color="#ea2855"/>
      <stop offset=".47" stop-color="#ea2856"/>
      <stop offset=".48" stop-color="#ea2856"/>
      <stop offset=".5" stop-color="#ea2857"/>
      <stop offset=".52" stop-color="#ea2857"/>
      <stop offset=".53" stop-color="#ea2858"/>
      <stop offset=".55" stop-color="#ea2858"/>
      <stop offset=".56" stop-color="#ea2859"/>
      <stop offset=".58" stop-color="#ea285a"/>
      <stop offset=".59" stop-color="#ea285a"/>
      <stop offset=".61" stop-color="#ea285b"/>
      <stop offset=".62" stop-color="#ea285b"/>
      <stop offset=".64" stop-color="#ea285c"/>
      <stop offset=".66" stop-color="#ea285c"/>
      <stop offset=".67" stop-color="#ea285d"/>
      <stop offset=".69" stop-color="#ea285e"/>
      <stop offset=".7" stop-color="#ea285e"/>
      <stop offset=".72" stop-color="#ea285f"/>
      <stop offset=".73" stop-color="#ea285f"/>
      <stop offset=".75" stop-color="#ea2860"/>
      <stop offset=".77" stop-color="#ea2860"/>
      <stop offset=".78" stop-color="#ea2861"/>
      <stop offset=".8" stop-color="#ea2862"/>
      <stop offset=".81" stop-color="#ea2862"/>
      <stop offset=".83" stop-color="#ea2863"/>
      <stop offset=".84" stop-color="#ea2863"/>
      <stop offset=".86" stop-color="#ea2864"/>
      <stop offset=".88" stop-color="#ea2864"/>
      <stop offset=".89" stop-color="#ea2865"/>
      <stop offset=".91" stop-color="#ea2865"/>
      <stop offset=".92" stop-color="#ea2866"/>
      <stop offset=".94" stop-color="#ea2867"/>
      <stop offset=".95" stop-color="#ea2867"/>
      <stop offset=".97" stop-color="#ea2868"/>
      <stop offset="1" stop-color="#ea2868"/>
    </linearGradient>
  </defs>
  <g class="cls-4">
    <path class="cls-3" d="M221.68,228.17v593.25h615.73V228.17H221.68Z"/>
  </g>
  <path class="cls-1" d="M961.01,455.08c-4.93-32.19-13.39-63.75-25.21-94.1l53.43-72.49c-9.29-18.54-19.66-36.51-31.08-53.83l-89.49,10.02c-20.37-25.42-43.47-48.52-68.89-68.88l10.02-89.5c-17.31-11.42-35.28-21.8-53.83-31.08l-72.49,53.43c-30.34-11.83-61.9-20.29-94.1-25.21L553.31.93c-20.7-1.24-41.46-1.24-62.16,0l-36.07,82.51c-32.19,4.92-63.75,13.38-94.1,25.21l-72.5-53.42c-18.54,9.28-36.52,19.65-53.83,31.08l10.02,89.49c-25.42,20.36-48.52,43.46-68.89,68.89l-89.49-10.03c-11.42,17.31-21.8,35.28-31.08,53.83l53.43,72.49c-11.83,30.35-20.29,61.91-25.21,94.1L.93,491.15c-1.24,20.7-1.24,41.46,0,62.16l82.51,36.07c4.93,32.19,13.38,63.75,25.21,94.1l-53.43,72.49c9.28,18.54,19.65,36.52,31.08,53.83l89.49-10.02c20.37,25.42,43.47,48.52,68.89,68.89l-10.02,89.49c17.31,11.42,35.28,21.8,53.83,31.08l72.49-53.43c30.34,11.83,61.9,20.29,94.1,25.21l36.07,82.51c6.33.38,12.68.63,19.02.77h24.12c6.34-.15,12.68-.39,19.02-.77l36.06-82.51c32.2-4.93,63.76-13.39,94.1-25.21l72.49,53.43c18.55-9.28,36.52-19.65,53.83-31.08l-10.02-89.49c25.42-20.36,48.52-43.46,68.89-68.89l89.49,10.02c11.42-17.31,21.8-35.28,31.08-53.83l-53.43-72.49c11.83-30.34,20.29-61.91,25.21-94.1l82.52-36.07c.37-6.25.62-12.51.77-18.76v-24.62c-.15-6.26-.39-12.51-.77-18.77l-82.52-36.06ZM522.23,894.93c-205.7,0-372.7-167-372.7-372.7s167-372.7,372.7-372.7,372.7,167,372.7,372.7-167.01,372.7-372.7,372.7Z"/>
</svg>